<mxfile host="app.diagrams.net" agent="Mozilla/5.0 (Windows NT 10.0; Win64; x64) AppleWebKit/537.36 (KHTML, like Gecko) Chrome/132.0.0.0 Safari/537.36" version="26.0.10">
  <diagram name="Pagina-1" id="YQXHqJPj2iigatmt3TYY">
    <mxGraphModel dx="1514" dy="793" grid="1" gridSize="10" guides="1" tooltips="1" connect="1" arrows="1" fold="1" page="1" pageScale="1" pageWidth="1169" pageHeight="827" math="0" shadow="0">
      <root>
        <mxCell id="0" />
        <mxCell id="1" parent="0" />
        <mxCell id="dZUwvz9HDP0sE0T2P84A-5" value="" style="edgeStyle=orthogonalEdgeStyle;rounded=0;orthogonalLoop=1;jettySize=auto;html=1;" parent="1" source="dZUwvz9HDP0sE0T2P84A-1" target="dZUwvz9HDP0sE0T2P84A-4" edge="1">
          <mxGeometry relative="1" as="geometry" />
        </mxCell>
        <mxCell id="dZUwvz9HDP0sE0T2P84A-1" value="INIZIO" style="ellipse;whiteSpace=wrap;html=1;" parent="1" vertex="1">
          <mxGeometry x="510" y="20" width="120" height="80" as="geometry" />
        </mxCell>
        <mxCell id="dZUwvz9HDP0sE0T2P84A-18" value="" style="edgeStyle=orthogonalEdgeStyle;rounded=0;orthogonalLoop=1;jettySize=auto;html=1;" parent="1" source="dZUwvz9HDP0sE0T2P84A-2" target="dZUwvz9HDP0sE0T2P84A-17" edge="1">
          <mxGeometry relative="1" as="geometry" />
        </mxCell>
        <mxCell id="dZUwvz9HDP0sE0T2P84A-2" value="read temp" style="shape=parallelogram;perimeter=parallelogramPerimeter;whiteSpace=wrap;html=1;fixedSize=1;" parent="1" vertex="1">
          <mxGeometry x="670" y="340" width="120" height="50" as="geometry" />
        </mxCell>
        <mxCell id="dZUwvz9HDP0sE0T2P84A-9" value="" style="edgeStyle=orthogonalEdgeStyle;rounded=0;orthogonalLoop=1;jettySize=auto;html=1;" parent="1" source="dZUwvz9HDP0sE0T2P84A-4" target="dZUwvz9HDP0sE0T2P84A-8" edge="1">
          <mxGeometry relative="1" as="geometry" />
        </mxCell>
        <mxCell id="dZUwvz9HDP0sE0T2P84A-4" value="i = 1&lt;div&gt;somma = 0&lt;div&gt;media = 0&lt;/div&gt;&lt;/div&gt;&lt;div&gt;temp = 0&lt;/div&gt;&lt;div&gt;cont = 0&lt;/div&gt;" style="rounded=0;whiteSpace=wrap;html=1;" parent="1" vertex="1">
          <mxGeometry x="510" y="190" width="120" height="80" as="geometry" />
        </mxCell>
        <mxCell id="dZUwvz9HDP0sE0T2P84A-10" value="" style="edgeStyle=orthogonalEdgeStyle;rounded=0;orthogonalLoop=1;jettySize=auto;html=1;" parent="1" source="dZUwvz9HDP0sE0T2P84A-8" target="dZUwvz9HDP0sE0T2P84A-2" edge="1">
          <mxGeometry relative="1" as="geometry" />
        </mxCell>
        <mxCell id="dZUwvz9HDP0sE0T2P84A-11" value="TRUE" style="edgeLabel;html=1;align=center;verticalAlign=middle;resizable=0;points=[];" parent="dZUwvz9HDP0sE0T2P84A-10" vertex="1" connectable="0">
          <mxGeometry x="-0.3913" y="-2" relative="1" as="geometry">
            <mxPoint as="offset" />
          </mxGeometry>
        </mxCell>
        <mxCell id="dZUwvz9HDP0sE0T2P84A-21" style="edgeStyle=orthogonalEdgeStyle;rounded=0;orthogonalLoop=1;jettySize=auto;html=1;exitX=0;exitY=0.5;exitDx=0;exitDy=0;" parent="1" source="dZUwvz9HDP0sE0T2P84A-8" edge="1">
          <mxGeometry relative="1" as="geometry">
            <mxPoint x="420" y="360" as="targetPoint" />
          </mxGeometry>
        </mxCell>
        <mxCell id="dZUwvz9HDP0sE0T2P84A-22" value="FALSE" style="edgeLabel;html=1;align=center;verticalAlign=middle;resizable=0;points=[];" parent="dZUwvz9HDP0sE0T2P84A-21" vertex="1" connectable="0">
          <mxGeometry x="-0.068" y="-4" relative="1" as="geometry">
            <mxPoint as="offset" />
          </mxGeometry>
        </mxCell>
        <mxCell id="dZUwvz9HDP0sE0T2P84A-8" value="i&amp;lt;=7" style="rhombus;whiteSpace=wrap;html=1;" parent="1" vertex="1">
          <mxGeometry x="530" y="320" width="80" height="80" as="geometry" />
        </mxCell>
        <mxCell id="dZUwvz9HDP0sE0T2P84A-20" value="" style="edgeStyle=orthogonalEdgeStyle;rounded=0;orthogonalLoop=1;jettySize=auto;html=1;" parent="1" source="dZUwvz9HDP0sE0T2P84A-17" target="dZUwvz9HDP0sE0T2P84A-19" edge="1">
          <mxGeometry relative="1" as="geometry" />
        </mxCell>
        <mxCell id="dZUwvz9HDP0sE0T2P84A-17" value="cont +=1&amp;nbsp;" style="whiteSpace=wrap;html=1;" parent="1" vertex="1">
          <mxGeometry x="830" y="335" width="120" height="60" as="geometry" />
        </mxCell>
        <mxCell id="dZUwvz9HDP0sE0T2P84A-31" value="" style="edgeStyle=orthogonalEdgeStyle;rounded=0;orthogonalLoop=1;jettySize=auto;html=1;" parent="1" source="dZUwvz9HDP0sE0T2P84A-19" target="dZUwvz9HDP0sE0T2P84A-30" edge="1">
          <mxGeometry relative="1" as="geometry">
            <Array as="points">
              <mxPoint x="1070" y="480" />
            </Array>
          </mxGeometry>
        </mxCell>
        <mxCell id="dZUwvz9HDP0sE0T2P84A-19" value="somma + = temp" style="whiteSpace=wrap;html=1;" parent="1" vertex="1">
          <mxGeometry x="1000" y="335" width="120" height="60" as="geometry" />
        </mxCell>
        <mxCell id="dZUwvz9HDP0sE0T2P84A-26" value="" style="edgeStyle=orthogonalEdgeStyle;rounded=0;orthogonalLoop=1;jettySize=auto;html=1;" parent="1" source="dZUwvz9HDP0sE0T2P84A-24" edge="1">
          <mxGeometry relative="1" as="geometry">
            <mxPoint x="355" y="470" as="targetPoint" />
          </mxGeometry>
        </mxCell>
        <mxCell id="dZUwvz9HDP0sE0T2P84A-24" value="media = somma / cont" style="rounded=0;whiteSpace=wrap;html=1;" parent="1" vertex="1">
          <mxGeometry x="290" y="330" width="130" height="60" as="geometry" />
        </mxCell>
        <mxCell id="dZUwvz9HDP0sE0T2P84A-29" value="" style="edgeStyle=orthogonalEdgeStyle;rounded=0;orthogonalLoop=1;jettySize=auto;html=1;" parent="1" source="dZUwvz9HDP0sE0T2P84A-27" target="dZUwvz9HDP0sE0T2P84A-28" edge="1">
          <mxGeometry relative="1" as="geometry" />
        </mxCell>
        <mxCell id="dZUwvz9HDP0sE0T2P84A-27" value="write media" style="shape=parallelogram;perimeter=parallelogramPerimeter;whiteSpace=wrap;html=1;fixedSize=1;" parent="1" vertex="1">
          <mxGeometry x="290" y="470" width="120" height="60" as="geometry" />
        </mxCell>
        <mxCell id="dZUwvz9HDP0sE0T2P84A-28" value="FINE" style="ellipse;whiteSpace=wrap;html=1;" parent="1" vertex="1">
          <mxGeometry x="295" y="620" width="110" height="70" as="geometry" />
        </mxCell>
        <mxCell id="dZUwvz9HDP0sE0T2P84A-33" value="" style="edgeStyle=orthogonalEdgeStyle;rounded=0;orthogonalLoop=1;jettySize=auto;html=1;" parent="1" source="dZUwvz9HDP0sE0T2P84A-30" target="dZUwvz9HDP0sE0T2P84A-32" edge="1">
          <mxGeometry relative="1" as="geometry" />
        </mxCell>
        <mxCell id="dZUwvz9HDP0sE0T2P84A-34" value="TRUE" style="edgeLabel;html=1;align=center;verticalAlign=middle;resizable=0;points=[];" parent="dZUwvz9HDP0sE0T2P84A-33" vertex="1" connectable="0">
          <mxGeometry x="-0.1902" y="-3" relative="1" as="geometry">
            <mxPoint as="offset" />
          </mxGeometry>
        </mxCell>
        <mxCell id="6OEVWd2vWRLiNBe1epSW-2" style="edgeStyle=orthogonalEdgeStyle;rounded=0;orthogonalLoop=1;jettySize=auto;html=1;entryX=0.5;entryY=0;entryDx=0;entryDy=0;" edge="1" parent="1" source="dZUwvz9HDP0sE0T2P84A-30" target="dZUwvz9HDP0sE0T2P84A-40">
          <mxGeometry relative="1" as="geometry" />
        </mxCell>
        <mxCell id="6OEVWd2vWRLiNBe1epSW-3" value="FALSE" style="edgeLabel;html=1;align=center;verticalAlign=middle;resizable=0;points=[];" vertex="1" connectable="0" parent="6OEVWd2vWRLiNBe1epSW-2">
          <mxGeometry x="-0.3829" y="3" relative="1" as="geometry">
            <mxPoint as="offset" />
          </mxGeometry>
        </mxCell>
        <mxCell id="dZUwvz9HDP0sE0T2P84A-30" value="temp&amp;gt;=10&lt;div&gt;and&lt;/div&gt;&lt;div&gt;temp&amp;lt;=30&lt;/div&gt;" style="rhombus;whiteSpace=wrap;html=1;" parent="1" vertex="1">
          <mxGeometry x="700" y="440" width="130" height="80" as="geometry" />
        </mxCell>
        <mxCell id="6OEVWd2vWRLiNBe1epSW-4" style="edgeStyle=orthogonalEdgeStyle;rounded=0;orthogonalLoop=1;jettySize=auto;html=1;exitX=0.5;exitY=1;exitDx=0;exitDy=0;" edge="1" parent="1" source="dZUwvz9HDP0sE0T2P84A-32">
          <mxGeometry relative="1" as="geometry">
            <mxPoint x="980" y="600" as="targetPoint" />
          </mxGeometry>
        </mxCell>
        <mxCell id="dZUwvz9HDP0sE0T2P84A-32" value="write &quot;temperatura nella norma&quot;" style="shape=parallelogram;perimeter=parallelogramPerimeter;whiteSpace=wrap;html=1;fixedSize=1;" parent="1" vertex="1">
          <mxGeometry x="485" y="445" width="125" height="70" as="geometry" />
        </mxCell>
        <mxCell id="dZUwvz9HDP0sE0T2P84A-51" value="" style="edgeStyle=orthogonalEdgeStyle;rounded=0;orthogonalLoop=1;jettySize=auto;html=1;" parent="1" source="dZUwvz9HDP0sE0T2P84A-38" target="dZUwvz9HDP0sE0T2P84A-50" edge="1">
          <mxGeometry relative="1" as="geometry" />
        </mxCell>
        <mxCell id="dZUwvz9HDP0sE0T2P84A-38" value="" style="ellipse;whiteSpace=wrap;html=1;aspect=fixed;" parent="1" vertex="1">
          <mxGeometry x="962" y="605" width="40" height="40" as="geometry" />
        </mxCell>
        <mxCell id="dZUwvz9HDP0sE0T2P84A-44" value="" style="edgeStyle=orthogonalEdgeStyle;rounded=0;orthogonalLoop=1;jettySize=auto;html=1;" parent="1" source="dZUwvz9HDP0sE0T2P84A-40" edge="1" target="dZUwvz9HDP0sE0T2P84A-46">
          <mxGeometry relative="1" as="geometry">
            <mxPoint x="779.5" y="720" as="targetPoint" />
            <Array as="points">
              <mxPoint x="765" y="720" />
              <mxPoint x="782" y="720" />
            </Array>
          </mxGeometry>
        </mxCell>
        <mxCell id="dZUwvz9HDP0sE0T2P84A-45" value="TRUE" style="edgeLabel;html=1;align=center;verticalAlign=middle;resizable=0;points=[];" parent="dZUwvz9HDP0sE0T2P84A-44" vertex="1" connectable="0">
          <mxGeometry x="-0.4237" y="1" relative="1" as="geometry">
            <mxPoint as="offset" />
          </mxGeometry>
        </mxCell>
        <mxCell id="dZUwvz9HDP0sE0T2P84A-47" style="edgeStyle=orthogonalEdgeStyle;rounded=0;orthogonalLoop=1;jettySize=auto;html=1;exitX=1;exitY=0.5;exitDx=0;exitDy=0;entryX=0;entryY=0.5;entryDx=0;entryDy=0;" parent="1" source="dZUwvz9HDP0sE0T2P84A-40" target="dZUwvz9HDP0sE0T2P84A-38" edge="1">
          <mxGeometry relative="1" as="geometry" />
        </mxCell>
        <mxCell id="dZUwvz9HDP0sE0T2P84A-48" value="FALSE" style="edgeLabel;html=1;align=center;verticalAlign=middle;resizable=0;points=[];" parent="dZUwvz9HDP0sE0T2P84A-47" vertex="1" connectable="0">
          <mxGeometry x="-0.5602" y="3" relative="1" as="geometry">
            <mxPoint as="offset" />
          </mxGeometry>
        </mxCell>
        <mxCell id="dZUwvz9HDP0sE0T2P84A-40" value="temp&amp;lt;=5&lt;div&gt;or&lt;/div&gt;&lt;div&gt;temp&amp;gt;=35&lt;/div&gt;" style="rhombus;whiteSpace=wrap;html=1;" parent="1" vertex="1">
          <mxGeometry x="708.75" y="580" width="112.5" height="90" as="geometry" />
        </mxCell>
        <mxCell id="dZUwvz9HDP0sE0T2P84A-49" style="edgeStyle=orthogonalEdgeStyle;rounded=0;orthogonalLoop=1;jettySize=auto;html=1;exitX=1;exitY=0.5;exitDx=0;exitDy=0;entryX=0.5;entryY=1;entryDx=0;entryDy=0;" parent="1" source="dZUwvz9HDP0sE0T2P84A-46" target="dZUwvz9HDP0sE0T2P84A-38" edge="1">
          <mxGeometry relative="1" as="geometry" />
        </mxCell>
        <mxCell id="dZUwvz9HDP0sE0T2P84A-46" value="write &quot; Allerta temperatura&quot;" style="shape=parallelogram;perimeter=parallelogramPerimeter;whiteSpace=wrap;html=1;fixedSize=1;" parent="1" vertex="1">
          <mxGeometry x="722" y="730" width="120" height="60" as="geometry" />
        </mxCell>
        <mxCell id="dZUwvz9HDP0sE0T2P84A-52" style="edgeStyle=orthogonalEdgeStyle;rounded=0;orthogonalLoop=1;jettySize=auto;html=1;exitX=1;exitY=0.5;exitDx=0;exitDy=0;entryX=1;entryY=0;entryDx=0;entryDy=0;" parent="1" source="dZUwvz9HDP0sE0T2P84A-50" target="dZUwvz9HDP0sE0T2P84A-8" edge="1">
          <mxGeometry relative="1" as="geometry">
            <Array as="points">
              <mxPoint x="1160" y="615" />
              <mxPoint x="1160" y="320" />
              <mxPoint x="590" y="320" />
            </Array>
          </mxGeometry>
        </mxCell>
        <mxCell id="dZUwvz9HDP0sE0T2P84A-50" value="i += 1" style="whiteSpace=wrap;html=1;" parent="1" vertex="1">
          <mxGeometry x="1074.5" y="585" width="95" height="60" as="geometry" />
        </mxCell>
      </root>
    </mxGraphModel>
  </diagram>
</mxfile>
